<?xml version="1.0" standalone="no"?>
<!DOCTYPE svg PUBLIC "-//W3C//DTD SVG 20010904//EN"
 "http://www.w3.org/TR/2001/REC-SVG-20010904/DTD/svg10.dtd">
<svg version="1.0" xmlns="http://www.w3.org/2000/svg"
 width="91.992606pt" height="80.943792pt" viewBox="0 0 91.992606 80.943792"
 preserveAspectRatio="xMidYMid meet">
<metadata>
Created by potrace 1.12, written by Peter Selinger 2001-2015
</metadata>
<g transform="translate(-4.003667,94.000000) scale(0.100000,-0.100000)"
fill="#000000" stroke="none">
<path d="M354 869 l-72 -72 -48 17 c-69 23 -93 21 -105 -11 -12 -34 3 -175 26
-228 8 -21 15 -40 15 -42 0 -3 -23 -2 -50 2 -78 11 -80 7 -80 -164 0 -163 10
-195 69 -226 38 -19 117 -19 154 0 25 13 32 13 57 0 37 -19 113 -19 150 0 27
14 33 14 60 0 37 -19 113 -19 150 0 25 13 32 13 57 0 37 -19 116 -19 154 0 47
25 69 70 69 142 0 73 -13 87 -92 98 -27 4 -48 8 -48 9 0 2 11 36 25 76 28 82
31 113 13 127 -7 6 -116 45 -243 88 -126 42 -232 79 -234 81 -3 3 19 28 47 57
29 29 52 57 52 63 0 10 -41 54 -51 54 -2 0 -36 -32 -75 -71z m146 -234 c146
-48 268 -91 273 -94 4 -4 -2 -35 -14 -69 -18 -54 -24 -61 -42 -57 -12 3 -111
23 -221 45 -109 22 -204 44 -211 50 -39 32 -97 230 -64 218 8 -3 133 -45 279
-93z m0 -260 c184 -36 343 -68 353 -71 20 -6 24 -63 5 -82 -19 -19 -76 -15
-95 8 -23 27 -84 27 -108 0 -11 -12 -31 -20 -50 -20 -19 0 -39 8 -50 20 -12
13 -31 20 -55 20 -24 0 -43 -7 -55 -20 -24 -26 -76 -26 -100 0 -24 27 -85 27
-108 0 -19 -23 -76 -27 -95 -8 -8 8 -12 49 -12 121 0 98 2 108 18 103 9 -3
168 -35 352 -71z"/>
</g>
</svg>
